<?xml version="1.0" standalone="no"?>
<!DOCTYPE svg PUBLIC "-//W3C//DTD SVG 20010904//EN"
 "http://www.w3.org/TR/2001/REC-SVG-20010904/DTD/svg10.dtd">
<svg version="1.0" xmlns="http://www.w3.org/2000/svg"
 width="418.000000pt" height="418.000000pt" viewBox="0 0 418.000000 418.000000"
 preserveAspectRatio="xMidYMid meet">
<metadata>
Created by potrace 1.16, written by Peter Selinger 2001-2019
</metadata>
<g transform="translate(0.000000,418.000000) scale(0.100000,-0.100000)"
fill="#000000" stroke="none">
<path d="M1427 3160 c42 -43 58 -110 49 -207 -13 -137 -64 -257 -94 -220 -19
23 -34 116 -27 165 3 26 18 82 32 125 26 80 24 90 -14 101 -20 6 -24 0 -48
-76 -18 -57 -27 -108 -28 -163 -2 -71 1 -85 26 -127 48 -82 122 -86 162 -8 39
76 57 250 34 333 -13 48 -55 94 -94 103 l-30 7 32 -33z"/>
<path d="M1886 3149 c-15 -17 -43 -60 -64 -95 -20 -35 -40 -64 -44 -64 -4 0
-21 27 -39 60 -29 56 -73 110 -88 110 -23 -1 -31 -27 -40 -135 -17 -190 -15
-288 7 -315 33 -41 42 -18 42 113 0 67 3 146 7 175 l6 54 28 -49 c33 -57 73
-98 88 -89 6 4 32 42 58 86 26 43 49 77 51 76 2 -2 -2 -39 -8 -83 -6 -43 -11
-125 -11 -182 0 -88 3 -105 18 -117 10 -7 21 -12 25 -11 5 1 10 61 12 132 1
72 11 179 21 238 16 94 17 110 4 118 -25 16 -47 10 -73 -22z"/>
<path d="M3040 3163 c-41 -9 -91 -13 -134 -9 -59 4 -67 3 -55 -9 22 -21 81
-33 137 -27 29 2 52 1 52 -4 0 -5 -5 -52 -10 -104 -16 -167 -16 -310 1 -321 8
-5 17 -9 21 -9 10 0 17 62 28 260 7 123 15 187 23 193 7 4 45 6 85 3 39 -2 72
-2 72 0 0 2 -15 13 -32 24 -39 24 -94 24 -188 3z"/>
<path d="M986 3118 c-3 -29 -6 -77 -6 -106 0 -44 -4 -57 -26 -77 -26 -24 -25
-45 2 -45 11 0 14 -17 14 -79 0 -62 4 -84 18 -101 31 -38 44 -17 41 64 -6 155
-4 158 84 171 l47 7 0 -101 c0 -67 5 -114 15 -137 23 -57 40 -38 41 47 3 176
2 169 24 169 23 0 27 25 5 34 -13 5 -15 23 -13 98 3 89 2 93 -19 96 -23 3 -27
-7 -39 -109 l-6 -57 -49 -6 c-27 -4 -56 -9 -64 -12 -13 -5 -15 8 -15 83 0 87
-8 113 -36 113 -6 0 -14 -23 -18 -52z"/>
<path d="M2100 3161 c-40 -12 -90 -41 -90 -51 0 -17 34 -29 54 -18 9 5 19 8
22 6 2 -3 -3 -42 -11 -89 -22 -121 -20 -211 5 -260 39 -75 103 -75 172 -1 l43
47 -29 3 c-22 3 -38 -5 -70 -37 -23 -23 -46 -41 -52 -41 -19 0 -34 50 -34 114
l0 63 48 24 c26 13 49 25 52 27 13 9 -29 21 -56 16 l-31 -6 10 74 c5 40 14 79
20 86 6 8 27 12 55 10 38 -3 48 -8 62 -32 21 -38 40 -45 40 -14 0 64 -116 107
-210 79z"/>
<path d="M2423 3149 c-61 -30 -72 -46 -39 -59 24 -9 26 -14 21 -42 -28 -169
-32 -248 -14 -310 5 -21 14 -39 19 -39 6 -1 15 -2 21 -3 8 -1 11 32 10 106 -2
100 -1 107 21 122 13 9 41 19 62 23 36 6 37 7 21 20 -11 7 -34 13 -52 13 -30
0 -33 3 -33 31 0 16 5 50 11 75 9 34 17 46 36 50 25 7 96 0 126 -12 33 -12 17
17 -18 32 -51 21 -142 18 -192 -7z"/>
<path d="M2727 3133 c-14 -89 -28 -320 -22 -365 6 -45 25 -78 44 -78 5 0 11
64 15 143 3 78 9 182 12 231 5 69 4 90 -7 97 -26 16 -36 9 -42 -28z"/>
<path d="M2160 2230 l0 -50 -44 0 c-40 0 -56 -11 -56 -36 0 -2 23 -4 50 -4
l50 0 0 -45 c0 -38 3 -45 20 -45 17 0 20 7 20 45 l0 45 44 0 c46 0 69 16 45
31 -8 5 -31 9 -51 9 l-38 0 0 50 c0 43 -3 50 -20 50 -17 0 -20 -7 -20 -50z"/>
<path d="M2590 1774 c-41 -10 -90 -14 -132 -10 -38 3 -68 3 -68 1 0 -3 15 -12
32 -21 22 -12 55 -17 102 -16 l69 2 -7 -58 c-3 -31 -9 -125 -12 -208 -7 -147
-6 -152 14 -163 11 -6 23 -8 25 -3 3 4 11 104 17 222 8 134 17 218 24 223 6 4
44 6 84 4 l74 -4 -21 20 c-26 27 -113 31 -201 11z"/>
<path d="M1638 1771 c-72 -23 -129 -76 -106 -99 17 -17 29 -15 56 11 l24 22
-7 -161 c-8 -164 -2 -204 29 -204 11 0 16 32 21 138 11 220 16 245 47 259 37
18 54 8 74 -43 31 -82 0 -240 -62 -313 -44 -51 -80 -66 -130 -52 -45 12 -55 8
-22 -10 12 -7 44 -13 70 -13 70 0 123 41 168 127 31 62 34 75 33 150 -1 87
-17 139 -52 171 -24 21 -101 30 -143 17z"/>
<path d="M1921 1680 c-17 -151 -15 -330 5 -358 26 -38 34 -25 34 61 0 45 7
143 15 217 8 74 15 138 15 142 0 4 -7 14 -16 22 -32 33 -41 19 -53 -84z"/>
<path d="M2106 1765 c-21 -7 -46 -21 -55 -29 -14 -15 -14 -17 1 -32 12 -13 20
-14 37 -5 26 14 27 8 6 -109 -18 -102 -19 -150 -3 -202 13 -43 58 -88 89 -88
32 0 74 26 102 64 33 42 33 46 4 46 -14 0 -40 -16 -65 -40 -22 -22 -46 -40
-52 -40 -20 0 -41 69 -38 123 3 52 3 52 55 77 29 14 52 28 53 31 0 11 -44 19
-68 12 -19 -5 -22 -2 -21 23 0 16 6 54 12 84 l12 55 48 3 c45 3 48 1 68 -32
12 -20 25 -36 29 -36 16 0 20 18 10 45 -21 54 -138 81 -224 50z"/>
</g>
</svg>
